<svg width="32" height="32" viewBox="0 0 32 32" fill="none" xmlns="http://www.w3.org/2000/svg">
<g clip-path="url(#clip0_2_12)">
<g opacity="0.5">
<path fill-rule="evenodd" clip-rule="evenodd" d="M6.55085 5.24409L5.93727 4.89712C5.1861 4.47236 4.22192 4.73066 3.78371 5.47406L0.584706 10.901C0.146492 11.6444 0.400191 12.5913 1.15136 13.0161L1.61766 13.2798C3.73337 14.4762 3.73337 17.5238 1.61766 18.7202L1.15135 18.9839C0.40019 19.4087 0.146492 20.3556 0.584705 21.099L3.78371 26.5259C4.22192 27.2693 5.1861 27.5277 5.93726 27.1029L6.55085 26.7559C8.63406 25.5779 11.2141 27.0829 11.2141 29.4761V30.0625C11.2141 30.9254 11.9136 31.625 12.7766 31.625H19.2234C20.0863 31.625 20.7859 30.9254 20.7859 30.0625V29.4762C20.7859 27.083 23.3659 25.578 25.4491 26.756L26.0626 27.1029C26.8138 27.5277 27.778 27.2694 28.2162 26.526L31.4152 21.0991C31.8534 20.3557 31.5997 19.4087 30.8485 18.9839L30.3822 18.7202C28.2665 17.5238 28.2665 14.4762 30.3822 13.2798L30.8485 13.0161C31.5997 12.5913 31.8534 11.6444 31.4152 10.901L28.2162 5.47405C27.778 4.73065 26.8138 4.47235 26.0626 4.89712L25.4491 5.24404C23.3659 6.42205 20.7859 4.91705 20.7859 2.52384V1.9375C20.7859 1.07456 20.0863 0.375 19.2234 0.375H12.7766C11.9136 0.375 11.2141 1.07456 11.2141 1.9375V2.52389C11.2141 4.9171 8.63406 6.4221 6.55085 5.24409ZM5.73575 8.31641L4.05317 11.1708C7.08821 13.6406 7.0882 18.3594 4.05317 20.8292L5.73575 23.6836C9.45447 22.1522 13.6623 24.5537 14.2656 28.5H17.7344C18.3377 24.5537 22.5454 22.1523 26.2641 23.6836L27.9467 20.8292C24.9117 18.3595 24.9117 13.6406 27.9467 11.1708L26.2641 8.31639C22.5454 9.8477 18.3377 7.44628 17.7344 3.5L14.2656 3.5C13.6623 7.44634 9.45447 9.84779 5.73575 8.31641Z" fill="#666666"/>
<path fill-rule="evenodd" clip-rule="evenodd" d="M16 19.125C17.7259 19.125 19.125 17.7259 19.125 16C19.125 14.2741 17.7259 12.875 16 12.875C14.2741 12.875 12.875 14.2741 12.875 16C12.875 17.7259 14.2741 19.125 16 19.125ZM16 22.25C19.4518 22.25 22.25 19.4518 22.25 16C22.25 12.5482 19.4518 9.75 16 9.75C12.5482 9.75 9.75 12.5482 9.75 16C9.75 19.4518 12.5482 22.25 16 22.25Z" fill="#666666"/>
</g>
</g>
<defs>
<clipPath id="clip0_2_12">
<rect width="32" height="32" fill="white"/>
</clipPath>
</defs>
</svg>
