<svg width="72" height="56" viewBox="0 0 72 56" fill="none" xmlns="http://www.w3.org/2000/svg">
<g clip-path="url(#clip0_2_20)">
<path fill-rule="evenodd" clip-rule="evenodd" d="M46.5509 17.2441L45.9373 16.8971C45.1861 16.4724 44.2219 16.7307 43.7837 17.4741L40.5847 22.901C40.1465 23.6444 40.4002 24.5913 41.1514 25.0161L41.6177 25.2798C43.7334 26.4762 43.7334 29.5238 41.6177 30.7202L41.1514 30.9839C40.4002 31.4087 40.1465 32.3556 40.5847 33.099L43.7837 38.5259C44.2219 39.2693 45.1861 39.5277 45.9373 39.1029L46.5508 38.7559C48.6341 37.5779 51.2141 39.0829 51.2141 41.4761V42.0625C51.2141 42.9254 51.9136 43.625 52.7766 43.625H59.2234C60.0863 43.625 60.7859 42.9254 60.7859 42.0625V41.4762C60.7859 39.083 63.3659 37.578 65.4491 38.756L66.0626 39.1029C66.8138 39.5277 67.778 39.2694 68.2162 38.526L71.4152 33.0991C71.8534 32.3557 71.5997 31.4087 70.8485 30.9839L70.3822 30.7202C68.2665 29.5238 68.2665 26.4762 70.3822 25.2798L70.8485 25.0161C71.5997 24.5913 71.8534 23.6444 71.4152 22.901L68.2162 17.4741C67.778 16.7307 66.8138 16.4723 66.0626 16.8971L65.4491 17.244C63.3659 18.4221 60.7859 16.917 60.7859 14.5238V13.9375C60.7859 13.0746 60.0863 12.375 59.2234 12.375H52.7766C51.9136 12.375 51.2141 13.0746 51.2141 13.9375V14.5239C51.2141 16.9171 48.6341 18.4221 46.5509 17.2441ZM45.7358 20.3164L44.0532 23.1708C47.0882 25.6406 47.0882 30.3594 44.0532 32.8292L45.7357 35.6836C49.4545 34.1522 53.6623 36.5537 54.2656 40.5H57.7344C58.3377 36.5537 62.5454 34.1523 66.2641 35.6836L67.9467 32.8292C64.9117 30.3595 64.9117 25.6406 67.9467 23.1708L66.2641 20.3164C62.5454 21.8477 58.3377 19.4463 57.7344 15.5L54.2656 15.5C53.6623 19.4463 49.4545 21.8478 45.7358 20.3164Z" fill="#5965E0"/>
<path fill-rule="evenodd" clip-rule="evenodd" d="M56 31.125C57.7259 31.125 59.125 29.7259 59.125 28C59.125 26.2741 57.7259 24.875 56 24.875C54.2741 24.875 52.875 26.2741 52.875 28C52.875 29.7259 54.2741 31.125 56 31.125ZM56 34.25C59.4518 34.25 62.25 31.4518 62.25 28C62.25 24.5482 59.4518 21.75 56 21.75C52.5482 21.75 49.75 24.5482 49.75 28C49.75 31.4518 52.5482 34.25 56 34.25Z" fill="#5965E0"/>
</g>
<path d="M0 0V0C2.20914 0 4 1.79086 4 4V52C4 54.2091 2.20914 56 0 56V56V0Z" fill="#5965E0"/>
<defs>
<clipPath id="clip0_2_20">
<rect width="32" height="32" fill="white" transform="translate(40 12)"/>
</clipPath>
</defs>
</svg>
